<svg xmlns="http://www.w3.org/2000/svg" viewBox="0 0 96 96">
  <defs>
    <filter id="paper" x="-10%" y="-10%" width="120%" height="120%">
      <feTurbulence type="fractalNoise" baseFrequency="0.9" numOctaves="2" seed="11" result="noise"/>
      <feColorMatrix in="noise" type="saturate" values="0"/>
      <feBlend in="SourceGraphic" mode="multiply"/>
    </filter>
  </defs>
  <g filter="url(#paper)" stroke="#39352f" stroke-width="4.5" stroke-linecap="round" stroke-linejoin="round">
    <circle cx="50" cy="20" r="10" fill="#ffd66e"/>
    <path fill="#fff2b8" d="M42 34c7-5 17-3 21 5 3 6 1 13-4 18l-8 7c-7 7-20 5-23-4-3-8 4-15 10-19l4-7z"/>
    <path fill="#d9ea9b" d="M60 17c4-6 12-8 18-4-2 8-8 13-18 12"/>
    <path fill="none" d="M44 37l-8 18M48 44l12 6M39 56l-12 17M57 58l9 17M40 32c5 4 12 5 18 1"/>
  </g>
</svg>
